<svg xmlns="http://www.w3.org/2000/svg" width="50" height="50" fill="none"><path fill="url(#a)" stroke="#D02B36" stroke-width="2" d="M1 10a9 9 0 0 1 9-9h39v48H1V10Z"/><mask id="b" width="33" height="33" x="8.364" y="8.364" fill="#000" maskUnits="userSpaceOnUse"><path fill="#fff" d="M8.364 8.364h33v33h-33z"/><path fill-rule="evenodd" d="M37.635 12.366a3.42 3.42 0 0 0-4.838 0L25 20.162l-7.796-7.796a3.42 3.42 0 1 0-4.838 4.838L20.162 25l-7.796 7.796a3.421 3.421 0 0 0 4.838 4.838L25 29.838l7.796 7.796a3.421 3.421 0 0 0 4.838-4.838L29.838 25l7.797-7.796a3.421 3.421 0 0 0 0-4.838Z" clip-rule="evenodd"/></mask><path fill="#fff" fill-rule="evenodd" d="M37.635 12.366a3.42 3.42 0 0 0-4.838 0L25 20.162l-7.796-7.796a3.42 3.42 0 1 0-4.838 4.838L20.162 25l-7.796 7.796a3.421 3.421 0 0 0 4.838 4.838L25 29.838l7.796 7.796a3.421 3.421 0 0 0 4.838-4.838L29.838 25l7.797-7.796a3.421 3.421 0 0 0 0-4.838Z" clip-rule="evenodd"/><path fill="#D02B36" d="m32.797 12.366-1.608-1.607 1.608 1.607Zm4.838 0-1.607 1.607 1.607-1.607ZM25 20.162l-1.607 1.607L25 23.376l1.607-1.607L25 20.162Zm-7.796-7.796-1.607 1.607 1.607-1.607Zm-4.838 0-1.607-1.607 1.607 1.607Zm0 4.838 1.607-1.607-1.607 1.607ZM20.162 25l1.607 1.607L23.376 25l-1.607-1.607L20.162 25Zm-7.796 7.796 1.607 1.607-1.607-1.607Zm0 4.838 1.607-1.607-1.607 1.607Zm4.838 0 1.607 1.607-1.607-1.607ZM25 29.838l1.607-1.607L25 26.624l-1.607 1.607L25 29.838Zm12.634 7.796 1.607 1.607-1.607-1.607Zm0-4.838-1.607 1.607 1.607-1.607ZM29.838 25l-1.607-1.607L26.624 25l1.607 1.607L29.838 25Zm7.797-7.796-1.607-1.607 1.607 1.607Zm-3.231-3.231a1.148 1.148 0 0 1 1.623 0l3.215-3.214a5.694 5.694 0 0 0-8.053 0l3.215 3.214Zm-7.797 7.796 7.797-7.796-3.215-3.214-7.796 7.796 3.214 3.214Zm0-3.214-7.796-7.796-3.214 3.214 7.796 7.796 3.214-3.214Zm-7.796-7.796a5.694 5.694 0 0 0-8.053 0l3.215 3.214a1.148 1.148 0 0 1 1.624 0l3.214-3.214Zm-8.053 0a5.694 5.694 0 0 0 0 8.052l3.215-3.214a1.148 1.148 0 0 1 0-1.624l-3.215-3.214Zm0 8.052 7.797 7.796 3.214-3.214-7.796-7.796-3.215 3.214Zm3.215 15.592 7.796-7.796-3.214-3.214-7.796 7.796 3.214 3.214Zm0 1.624a1.148 1.148 0 0 1 0-1.624l-3.214-3.214a5.694 5.694 0 0 0 0 8.052l3.214-3.214Zm1.624 0a1.148 1.148 0 0 1-1.624 0l-3.214 3.214a5.694 5.694 0 0 0 8.052 0l-3.214-3.214Zm7.796-7.796-7.796 7.796 3.214 3.214 7.796-7.796-3.214-3.214Zm0 3.214 7.796 7.796 3.214-3.214-7.796-7.796-3.214 3.214Zm7.796 7.796a5.694 5.694 0 0 0 8.052 0l-3.214-3.214a1.148 1.148 0 0 1-1.624 0l-3.214 3.214Zm8.052 0a5.694 5.694 0 0 0 0-8.052l-3.214 3.214a1.148 1.148 0 0 1 0 1.624l3.214 3.214Zm0-8.052-7.796-7.796-3.214 3.214 7.796 7.796 3.214-3.214Zm-3.213-15.592-7.797 7.796 3.214 3.214 7.797-7.796-3.214-3.214Zm0-1.624a1.148 1.148 0 0 1 0 1.624l3.214 3.214a5.694 5.694 0 0 0 0-8.052l-3.214 3.214Z" mask="url(#b)"/><defs><linearGradient id="a" x1="25" x2="25" y1="0" y2="50" gradientUnits="userSpaceOnUse"><stop stop-color="#DC3C46"/><stop offset="1" stop-color="#D02B36"/></linearGradient></defs></svg>