<svg xmlns="http://www.w3.org/2000/svg" width="49" height="49" fill="none"><path fill="url(#a)" stroke="#41BF5E" stroke-width="1.78" d="M47.39 1.92v-.89H10.9c-5.407 0-9.79 4.383-9.79 9.79v36.49h46.28V1.92Z"/><mask id="b" width="36" height="28" x="6.23" y="10.155" fill="#000" maskUnits="userSpaceOnUse"><path fill="#fff" d="M6.23 10.155h36v28h-36z"/><path fill-rule="evenodd" d="M39.385 13.04a3.023 3.023 0 0 0-4.276 0L19.27 28.885l-5.878-5.88a3.023 3.023 0 1 0-4.276 4.276l8.017 8.02a3.023 3.023 0 0 0 4.368-.097l.07-.067 17.814-17.819a3.024 3.024 0 0 0 0-4.276Z" clip-rule="evenodd"/></mask><path fill="#fff" fill-rule="evenodd" d="M39.385 13.04a3.023 3.023 0 0 0-4.276 0L19.27 28.885l-5.878-5.88a3.023 3.023 0 1 0-4.276 4.276l8.017 8.02a3.023 3.023 0 0 0 4.368-.097l.07-.067 17.814-17.819a3.024 3.024 0 0 0 0-4.276Z" clip-rule="evenodd"/><path fill="#41BF5E" d="m35.11 13.04-1.26-1.258 1.26 1.259Zm4.275 0-1.259 1.26 1.259-1.26ZM19.27 28.885l-1.259 1.258 1.259 1.26 1.259-1.26-1.259-1.258Zm-5.878-5.88 1.258-1.259-1.258 1.259Zm-4.276 0 1.259 1.258-1.259-1.258Zm0 4.276L7.857 28.54l1.259-1.259Zm8.017 8.02 1.259-1.26-1.259 1.26Zm4.276 0 1.259 1.258-1.26-1.259Zm.092-.097-1.219-1.297-.048.045-.045.05 1.312 1.202Zm.07-.067-1.26-1.259 1.26 1.259Zm17.814-17.819 1.259 1.259-1.26-1.259ZM36.368 14.3a1.243 1.243 0 0 1 1.758 0l2.518-2.517a4.803 4.803 0 0 0-6.793 0l2.517 2.517Zm-15.84 15.843L36.368 14.3l-2.517-2.517-15.84 15.843 2.518 2.517Zm0-2.517-5.878-5.88-2.517 2.517 5.878 5.88 2.518-2.517Zm-5.878-5.88a4.803 4.803 0 0 0-6.793 0l2.518 2.517a1.243 1.243 0 0 1 1.758 0l2.517-2.517Zm-6.793 0a4.804 4.804 0 0 0 0 6.794l2.518-2.517a1.244 1.244 0 0 1 0-1.76l-2.518-2.517Zm0 6.794 8.017 8.019 2.518-2.517-8.017-8.02-2.518 2.518Zm8.017 8.019a4.803 4.803 0 0 0 6.794 0L20.15 34.04a1.243 1.243 0 0 1-1.758 0l-2.518 2.517Zm6.794 0c.05-.05.098-.1.145-.152L20.19 34a1.23 1.23 0 0 1-.039.04l2.518 2.518Zm-2.357-2.68-.029.028L22.72 36.5a4.91 4.91 0 0 0 .109-.106l-2.518-2.517Zm17.815-17.82-17.815 17.82 2.518 2.516 17.815-17.818-2.518-2.517Zm0-1.759a1.244 1.244 0 0 1 0 1.76l2.518 2.517a4.804 4.804 0 0 0 0-6.794L38.126 14.3Z" mask="url(#b)"/><defs><linearGradient id="a" x1="24.25" x2="24.25" y1="1.92" y2="46.42" gradientUnits="userSpaceOnUse"><stop stop-color="#4CCD69"/><stop offset="1" stop-color="#41BF5E"/></linearGradient></defs></svg>