<svg xmlns="http://www.w3.org/2000/svg" width="30" height="31" fill="none"><path fill="url(#a)" stroke="#D02B36" stroke-width="1.19" d="M.68 6.852a5.356 5.356 0 0 1 5.356-5.356h23.21v28.566H.68V6.852Z"/><mask id="b" width="20" height="20" x="4.847" y="5.663" fill="#000" maskUnits="userSpaceOnUse"><path fill="#fff" d="M4.847 5.663h20v20h-20z"/><path fill-rule="evenodd" d="M7.443 8.26a2.036 2.036 0 0 1 2.88 0l4.64 4.64 4.639-4.64a2.036 2.036 0 0 1 2.88 2.879l-4.64 4.64 4.639 4.64a2.036 2.036 0 1 1-2.88 2.878l-4.639-4.639-4.64 4.64a2.036 2.036 0 0 1-2.879-2.88l4.64-4.64-4.64-4.64a2.036 2.036 0 0 1 0-2.878Z" clip-rule="evenodd"/></mask><path fill="#fff" fill-rule="evenodd" d="M7.443 8.26a2.036 2.036 0 0 1 2.88 0l4.64 4.64 4.639-4.64a2.036 2.036 0 0 1 2.88 2.879l-4.64 4.64 4.639 4.64a2.036 2.036 0 1 1-2.88 2.878l-4.639-4.639-4.64 4.64a2.036 2.036 0 0 1-2.879-2.88l4.64-4.64-4.64-4.64a2.036 2.036 0 0 1 0-2.878Z" clip-rule="evenodd"/><path fill="#D02B36" d="m10.322 8.26.957-.957-.957.957Zm-2.879 0 .956.956-.956-.956Zm7.52 4.64-.957.956.956.956.957-.956-.957-.957Zm4.639-4.64.956.956-.956-.956Zm2.88 0 .956-.957-.957.957Zm0 2.879.956.956-.957-.956Zm-4.64 4.64-.957-.957-.956.957.956.956.956-.956Zm4.639 4.64.956-.957-.956.956Zm0 2.878-.957-.956.957.956Zm-2.88 0 .957-.956-.956.956Zm-4.639-4.639.957-.956-.957-.957-.956.957.956.956Zm-4.64 4.64.957.956-.956-.957Zm-2.879 0 .957-.957-.957.956Zm0-2.88.957.957-.957-.957Zm4.64-4.64.956.957.957-.956-.957-.957-.956.957Zm-4.64-4.64.956-.956-.956.957Zm3.836-3.835a3.388 3.388 0 0 0-4.792 0l1.912 1.913a.683.683 0 0 1 .967 0l1.913-1.913Zm4.64 4.64-4.64-4.64-1.913 1.913 4.64 4.64 1.912-1.913Zm0 1.913 4.64-4.64-1.913-1.913-4.64 4.64 1.912 1.913Zm4.64-4.64a.683.683 0 0 1 .966 0l1.913-1.913a3.388 3.388 0 0 0-4.792 0l1.912 1.913Zm.966 0c.267.267.267.7 0 .966l1.913 1.913a3.388 3.388 0 0 0 0-4.792l-1.913 1.913Zm0 .966-4.64 4.64 1.913 1.913 4.64-4.64-1.913-1.913Zm1.912 9.28-4.64-4.64-1.912 1.913 4.64 4.64 1.912-1.913Zm0 4.792a3.388 3.388 0 0 0 0-4.792l-1.913 1.913c.267.267.267.7 0 .966l1.913 1.913Zm-4.792 0a3.389 3.389 0 0 0 4.792 0l-1.913-1.913a.683.683 0 0 1-.966 0l-1.913 1.913Zm-4.64-4.64 4.64 4.64 1.913-1.913-4.64-4.64-1.912 1.913Zm0-1.912-4.639 4.64 1.913 1.912 4.64-4.64-1.913-1.912Zm-4.639 4.64a.683.683 0 0 1-.966 0l-1.913 1.912a3.388 3.388 0 0 0 4.792 0L9.366 22.34Zm-.966 0a.683.683 0 0 1 0-.967l-1.913-1.913a3.388 3.388 0 0 0 0 4.792L8.4 22.34Zm0-.967 4.64-4.64-1.913-1.913-4.64 4.64L8.4 21.375Zm-1.913-9.28 4.64 4.64 1.912-1.913-4.64-4.64-1.912 1.913Zm0-4.792a3.389 3.389 0 0 0 0 4.792l1.912-1.913a.683.683 0 0 1 0-.966L6.487 7.303Z" mask="url(#b)"/><defs><linearGradient id="a" x1="14.962" x2="14.962" y1=".901" y2="30.657" gradientUnits="userSpaceOnUse"><stop stop-color="#DC3C46"/><stop offset="1" stop-color="#D02B36"/></linearGradient></defs></svg>