<svg xmlns="http://www.w3.org/2000/svg" fill="none" viewBox="0 0 101 50"><g clip-path="url(#a)"><path fill="#3983FA" d="m83.713 19.29-16.417-9.264L83.713.763l16.418 9.263v18.527l-16.418-9.264z"/><path fill="url(#b)" d="m83.713 19.29-16.417-9.264L83.713.763l16.418 9.263v18.527l-16.418-9.264z"/><path fill="#0667D0" d="m100.13 28.553-16.417 9.264V19.29l16.417 9.263z"/><path fill="url(#c)" fill-opacity=".21" d="m100.13 28.553-16.417 9.264V19.29l16.417 9.263z"/><path fill="#233143" fill-rule="evenodd" d="M16.752 39.126v4.144H.14v-3.246l9.481-11.189H.382v-4.144H16.44v3.246l-9.482 11.19h9.793zm17.273 3.858c-1.976.563-3.599.67-5.49.67-2.1 0-3.957-.409-5.572-1.226-1.615-.817-2.86-1.951-3.737-3.402-.877-1.45-1.316-3.096-1.316-4.938 0-1.819.433-3.46 1.298-4.921a9.083 9.083 0 0 1 3.565-3.42c1.51-.816 3.2-1.225 5.07-1.225 1.822 0 3.471.391 4.948 1.174a8.581 8.581 0 0 1 3.478 3.367c.842 1.462 1.263 3.16 1.263 5.094 0 .07-.035.553-.104 1.45H23.344c.253 1.152.853 2.061 1.799 2.729.946.668 2.16 1.006 3.565 1.056.86.03 3.11 0 5.317-.585v4.177zm-6.148-14.387c-1.223 0-2.25.33-3.08.989-.83.66-1.338 1.56-1.523 2.703h9.17c-.184-1.121-.691-2.017-1.522-2.687-.83-.67-1.846-1.005-3.045-1.005zm22.218 14.95H47.99c-2.215 0-3.928-.564-5.139-1.692-1.21-1.129-1.816-2.786-1.816-4.973v-8.047h-2.476v-4.27h2.48l-.005-6.094h5.399v6.22h3.662v4.144h-3.662v7.734c0 .783.202 1.387.605 1.813.404.426.975.75 1.714.75h1.343v4.415zM73.133 24.69l-8.409 18.787c-.854 2.14-1.91 3.649-3.166 4.523-1.258.876-2.774 1.313-4.551 1.313h-3.928v-4.352h3.755c.738 0 1.338-.178 1.8-.535.46-.357.876-.95 1.245-1.778l.07-.173-8.064-17.785h5.572l5.225 12.311 5.26-12.311h5.191z" clip-rule="evenodd"/></g><defs><linearGradient id="b" x1="82.139" x2="82.139" y1=".763" y2="13.216" gradientUnits="userSpaceOnUse"><stop stop-color="#fff" stop-opacity=".2"/><stop offset="1" stop-color="#fff" stop-opacity="0"/></linearGradient><linearGradient id="c" x1="88.979" x2="90.191" y1="28.553" y2="24.032" gradientUnits="userSpaceOnUse"><stop stop-opacity="0"/><stop offset="1"/></linearGradient><clipPath id="a"><path fill="#fff" d="M0 0h100.225v48.925H0z" transform="translate(0 .575)"/></clipPath></defs></svg>