<svg xmlns="http://www.w3.org/2000/svg" width="33" height="33" fill="none"><path fill="url(#a)" stroke="#41BF5E" stroke-width="1.19" d="M31.745 1.393V.798h-24.4A6.546 6.546 0 0 0 .8 7.344v24.4h30.945V1.393Z"/><mask id="b" width="25" height="20" x="3.56" y="6.237" fill="#000" maskUnits="userSpaceOnUse"><path fill="#fff" d="M3.56 6.237h25v20h-25z"/><path fill-rule="evenodd" d="M26.392 8.83a2.02 2.02 0 0 0-2.859 0L12.942 19.423l-3.93-3.931a2.021 2.021 0 1 0-2.86 2.86l5.361 5.361a2.021 2.021 0 0 0 2.92-.064l.047-.045 11.912-11.915c.79-.79.79-2.07 0-2.86Z" clip-rule="evenodd"/></mask><path fill="#fff" fill-rule="evenodd" d="M26.392 8.83a2.02 2.02 0 0 0-2.859 0L12.942 19.423l-3.93-3.931a2.021 2.021 0 1 0-2.86 2.86l5.361 5.361a2.021 2.021 0 0 0 2.92-.064l.047-.045 11.912-11.915c.79-.79.79-2.07 0-2.86Z" clip-rule="evenodd"/><path fill="#41BF5E" d="m23.533 8.83.842.841-.842-.841Zm2.86 0 .84-.842-.84.842ZM12.941 19.423l-.842.842.842.842.842-.842-.842-.842Zm-3.93-3.931-.843.841.842-.841Zm-2.86 0 .842.841-.842-.841Zm0 2.86.842-.843-.842.842Zm5.361 5.361-.842.842.842-.842Zm2.859 0 .842.842-.842-.842Zm.062-.064-.815-.868-.033.03-.03.034.878.804Zm.046-.045-.842-.842.842.842Zm11.912-11.915.842.842-.842-.842Zm-2.017-2.018a.831.831 0 0 1 1.175 0l1.684-1.683a3.212 3.212 0 0 0-4.543 0l1.684 1.683Zm-10.59 10.594L24.374 9.67l-1.682-1.683L12.1 18.582l1.684 1.683Zm0-1.683L9.853 14.65l-1.684 1.683 3.931 3.932 1.684-1.683ZM9.853 14.65a3.211 3.211 0 0 0-4.543 0l1.684 1.683a.831.831 0 0 1 1.175 0l1.684-1.683Zm-4.543 0a3.213 3.213 0 0 0 0 4.543l1.684-1.684a.832.832 0 0 1 0-1.176L5.31 14.65Zm0 4.543 5.361 5.362 1.684-1.683-5.361-5.363-1.684 1.684Zm5.361 5.362a3.212 3.212 0 0 0 4.543 0l-1.684-1.683a.831.831 0 0 1-1.175 0l-1.684 1.683Zm4.543 0 .097-.102-1.755-1.608a.939.939 0 0 1-.026.027l1.684 1.683Zm-1.576-1.793a.577.577 0 0 1-.02.02l1.63 1.734.074-.07-1.684-1.684ZM25.55 10.848 13.638 22.762l1.684 1.683 11.912-11.914-1.684-1.683Zm0-1.177a.832.832 0 0 1 0 1.177l1.684 1.683a3.213 3.213 0 0 0 0-4.543L25.55 9.671Z" mask="url(#b)"/><defs><linearGradient id="a" x1="16.272" x2="16.272" y1="1.393" y2="31.149" gradientUnits="userSpaceOnUse"><stop stop-color="#4CCD69"/><stop offset="1" stop-color="#41BF5E"/></linearGradient></defs></svg>