<svg xmlns="http://www.w3.org/2000/svg" fill="none" viewBox="0 0 25 24"><path fill="currentColor" fill-rule="evenodd" d="M17.256 16.87a.495.495 0 0 0 0-.705l-4.76-4.71h-.001l-4.762 4.71a.495.495 0 0 0 0 .705l.444.439a.507.507 0 0 0 .712 0l3.606-3.568 3.606 3.568a.508.508 0 0 0 .712 0l.443-.439Z" clip-rule="evenodd"/><path fill="currentColor" fill-rule="evenodd" d="M17.256 11.416a.495.495 0 0 0 0-.705L12.496 6h-.001l-4.762 4.71a.495.495 0 0 0 0 .706l.444.438a.508.508 0 0 0 .712 0l3.606-3.568 3.606 3.568a.508.508 0 0 0 .712 0l.443-.438Z" clip-rule="evenodd"/></svg>